<?xml version="1.0" encoding="UTF-8"?>
<!DOCTYPE svg PUBLIC "-//W3C//DTD SVG 1.1//EN" "http://www.w3.org/Graphics/SVG/1.1/DTD/svg11.dtd">
<svg xmlns="http://www.w3.org/2000/svg" version="1.1" width="604px" height="226px" style="shape-rendering:geometricPrecision; text-rendering:geometricPrecision; image-rendering:optimizeQuality; fill-rule:evenodd; clip-rule:evenodd" xmlns:xlink="http://www.w3.org/1999/xlink">
<g><path style="opacity:1" fill="#fefefe" d="M -0.5,-0.5 C 200.833,-0.5 402.167,-0.5 603.5,-0.5C 603.5,74.8333 603.5,150.167 603.5,225.5C 402.167,225.5 200.833,225.5 -0.5,225.5C -0.5,150.167 -0.5,74.8333 -0.5,-0.5 Z"/></g>
<g><path style="opacity:1" fill="#151515" d="M 543.5,27.5 C 544.833,27.5 546.167,27.5 547.5,27.5C 547.5,29.1667 547.5,30.8333 547.5,32.5C 543.065,33.0776 541.732,31.4109 543.5,27.5 Z"/></g>
<g><path style="opacity:1" fill="#141414" d="M 522.5,37.5 C 523.833,37.5 525.167,37.5 526.5,37.5C 526.5,35.5 526.5,33.5 526.5,31.5C 527.568,30.5655 528.901,30.2322 530.5,30.5C 530.5,32.5 530.5,34.5 530.5,36.5C 532.527,36.3379 534.527,36.5045 536.5,37C 537.833,38 537.833,39 536.5,40C 534.527,40.4955 532.527,40.6621 530.5,40.5C 530.334,45.8437 530.501,51.1771 531,56.5C 532.427,58.7871 534.261,59.1205 536.5,57.5C 537.856,60.6587 536.69,61.992 533,61.5C 530.296,61.8146 528.296,60.8146 527,58.5C 526.501,52.5092 526.334,46.5092 526.5,40.5C 525.167,40.5 523.833,40.5 522.5,40.5C 522.5,39.5 522.5,38.5 522.5,37.5 Z"/></g>
<g><path style="opacity:1" fill="#717171" d="M 526.5,31.5 C 526.5,33.5 526.5,35.5 526.5,37.5C 525.167,37.5 523.833,37.5 522.5,37.5C 523.209,36.596 524.209,36.2627 525.5,36.5C 525.216,34.5853 525.549,32.9187 526.5,31.5 Z"/></g>
<g><path style="opacity:1" fill="#1a1a1a" d="M 555.5,36.5 C 556.5,36.5 557.5,36.5 558.5,36.5C 558.343,37.8734 558.51,39.2068 559,40.5C 562.915,36.4502 567.415,35.6168 572.5,38C 577.486,45.2038 577.486,52.5371 572.5,60C 568.219,62.109 564.052,61.9423 560,59.5C 559.501,63.1516 559.335,66.8183 559.5,70.5C 557.833,70.5 556.167,70.5 554.5,70.5C 554.189,59.0857 554.523,47.7524 555.5,36.5 Z"/></g>
<g><path style="opacity:1" fill="#131313" d="M 586.5,36.5 C 588.857,36.3367 591.19,36.5034 593.5,37C 596.234,37.7183 596.9,39.2183 595.5,41.5C 593.043,39.7751 590.377,39.2751 587.5,40C 586.167,42 586.167,44 587.5,46C 591.037,47.2809 594.204,49.1143 597,51.5C 597.982,55.5625 596.815,58.7292 593.5,61C 590.167,61.6667 586.833,61.6667 583.5,61C 581.503,59.8469 581.17,58.3469 582.5,56.5C 585.208,58.4357 588.208,58.9357 591.5,58C 594.167,56 594.167,54 591.5,52C 587.65,50.6718 584.483,48.5051 582,45.5C 581.053,41.2791 582.553,38.2791 586.5,36.5 Z"/></g>
<g><path style="opacity:1" fill="#131313" d="M 543.5,36.5 C 544.822,36.33 545.989,36.6634 547,37.5C 547.5,45.4931 547.666,53.4931 547.5,61.5C 546.167,61.5 544.833,61.5 543.5,61.5C 543.5,53.1667 543.5,44.8333 543.5,36.5 Z"/></g>
<g><path style="opacity:1" fill="#f7f7f7" d="M 563.5,40.5 C 565.527,40.3379 567.527,40.5045 569.5,41C 571.496,45.2712 571.996,49.7712 571,54.5C 567.521,59.7567 563.854,59.7567 560,54.5C 559.333,50.8333 559.333,47.1667 560,43.5C 561.145,42.3636 562.312,41.3636 563.5,40.5 Z"/></g>
<g><path style="opacity:1" fill="#030303" d="M 165.5,57.5 C 179.792,56.5106 193.792,58.0106 207.5,62C 223.503,69.7021 232.003,82.5354 233,100.5C 233.667,135.833 233.667,171.167 233,206.5C 226.726,209.787 220.226,210.287 213.5,208C 213,207.5 212.5,207 212,206.5C 211.667,201.167 211.333,195.833 211,190.5C 188.833,213 163.666,217.167 135.5,203C 121.551,192.247 116.051,178.08 119,160.5C 122.297,145.442 131.13,134.942 145.5,129C 153.177,125.747 161.177,123.747 169.5,123C 182.162,122.5 194.829,122.333 207.5,122.5C 212.414,89.4095 198.414,74.9095 165.5,79C 161.057,79.5275 156.723,80.5275 152.5,82C 144.909,85.3797 137.409,88.8797 130,92.5C 128.739,92.2409 127.739,91.5742 127,90.5C 125.445,85.6178 125.112,80.6178 126,75.5C 127.122,73.3762 128.622,71.5429 130.5,70C 141.47,63.5195 153.137,59.3528 165.5,57.5 Z"/></g>
<g><path style="opacity:1" fill="#030303" d="M 452.5,57.5 C 466.792,56.5106 480.792,58.0106 494.5,62C 510.503,69.7021 519.003,82.5354 520,100.5C 520.667,135.833 520.667,171.167 520,206.5C 513.726,209.787 507.226,210.287 500.5,208C 500,207.5 499.5,207 499,206.5C 498.667,201.167 498.333,195.833 498,190.5C 475.833,213 450.666,217.167 422.5,203C 408.551,192.247 403.051,178.08 406,160.5C 409.297,145.442 418.13,134.942 432.5,129C 440.177,125.747 448.177,123.747 456.5,123C 469.162,122.5 481.829,122.333 494.5,122.5C 499.414,89.4095 485.414,74.9095 452.5,79C 448.057,79.5275 443.723,80.5275 439.5,82C 431.909,85.3797 424.409,88.8797 417,92.5C 415.739,92.2409 414.739,91.5742 414,90.5C 412.445,85.6178 412.112,80.6178 413,75.5C 414.122,73.3762 415.622,71.5429 417.5,70C 428.47,63.5195 440.137,59.3528 452.5,57.5 Z"/></g>
<g><path style="opacity:1" fill="#030303" d="M 259.5,59.5 C 266.508,59.3337 273.508,59.5004 280.5,60C 282.552,60.9299 284.052,62.4299 285,64.5C 298.143,103.597 311.476,142.597 325,181.5C 337.992,141.691 351.492,102.025 365.5,62.5C 366.5,61.6667 367.5,60.8333 368.5,60C 371.5,59.8333 374.5,59.6667 377.5,59.5C 381.858,59.3016 386.025,59.9683 390,61.5C 390.667,63.8333 390.667,66.1667 390,68.5C 373.452,114.648 356.618,160.648 339.5,206.5C 334.453,208.895 329.12,209.895 323.5,209.5C 317.551,210.224 312.217,208.891 307.5,205.5C 290.038,158.78 273.371,111.78 257.5,64.5C 257.437,62.4861 258.103,60.8194 259.5,59.5 Z"/></g>
<g><path style="opacity:1" fill="#fcfcfc" d="M 174.5,140.5 C 185.5,140.5 196.5,140.5 207.5,140.5C 207.666,150.839 207.5,161.172 207,171.5C 197.748,183.126 185.748,189.792 171,191.5C 148.507,189.184 140.507,177.184 147,155.5C 150.345,149.825 155.178,145.992 161.5,144C 165.919,142.648 170.252,141.481 174.5,140.5 Z"/></g>
<g><path style="opacity:1" fill="#fcfcfc" d="M 461.5,140.5 C 472.5,140.5 483.5,140.5 494.5,140.5C 494.666,150.839 494.5,161.172 494,171.5C 484.748,183.126 472.748,189.792 458,191.5C 435.507,189.184 427.507,177.184 434,155.5C 437.345,149.825 442.178,145.992 448.5,144C 452.919,142.648 457.252,141.481 461.5,140.5 Z"/></g>
<g><path style="opacity:1" fill="#7f7f7f" d="M 56.5,5.5 C 61.5111,5.33407 66.5111,5.50074 71.5,6C 73.5873,6.79217 75.4207,7.95884 77,9.5C 77.6667,61.5 77.6667,113.5 77,165.5C 74.576,200.15 56.076,214.984 21.5,210C 4.68749,207.882 -1.14584,198.715 4,182.5C 4.95603,181.106 6.28937,180.439 8,180.5C 13.4319,182.798 18.9319,184.964 24.5,187C 35.7462,189.821 43.5795,185.988 48,175.5C 48.9929,171.558 49.6596,167.558 50,163.5C 50.3333,111.833 50.6667,60.1667 51,8.5C 52.7189,7.13124 54.5522,6.13124 56.5,5.5 Z"/></g>
</svg>
